<svg width="17" height="18" viewBox="0 0 17 18" fill="none" xmlns="http://www.w3.org/2000/svg">
<rect width="17" height="17" transform="translate(0 0.0117188)" fill="#B8EF43"/>
<rect x="3.30556" y="3.31728" width="5.19444" height="5.19444" stroke="#1C291A" stroke-width="0.386589"/>
<path d="M5.00168 5.14239H6.74039V5.54725H6.10642V7.33932H5.63565V5.54725H5.00168V5.14239Z" fill="#1C291A"/>
<rect x="8.49989" y="3.31717" width="5.19444" height="5.19444" stroke="#1C291A" stroke-width="0.386589"/>
<path d="M10.3152 5.14229H11.7902V5.54715H10.7859V6.03989H11.6019V6.42592H10.7859V6.93435H11.8248V7.33921H10.3152V5.14229Z" fill="#1C291A"/>
<rect x="3.30545" y="8.51161" width="5.19444" height="5.19444" stroke="#1C291A" stroke-width="0.386589"/>
<path d="M5.00134 10.3368H6.74005V10.7417H6.10608V12.5338H5.63531V10.7417H5.00134V10.3368Z" fill="#1C291A"/>
<rect x="8.49989" y="8.51161" width="5.19444" height="5.19444" stroke="#1C291A" stroke-width="0.386589"/>
<path d="M11.2096 10.3369C11.3665 10.3369 11.5078 10.3683 11.6302 10.4279C11.7526 10.4876 11.8467 10.5723 11.9158 10.6821C11.9817 10.7951 12.0162 10.9238 12.0162 11.0682C12.0162 11.2094 11.9817 11.3349 11.9158 11.4416C11.8467 11.5484 11.7557 11.63 11.6396 11.6864L12.0727 12.5338H11.5517L11.1845 11.7963H10.7859V12.5338H10.3152V10.3369H11.2096ZM10.7859 11.404H11.172C11.2818 11.404 11.3697 11.3757 11.4356 11.313C11.5015 11.2533 11.536 11.1717 11.536 11.0682C11.536 10.9646 11.5015 10.883 11.4356 10.8202C11.3697 10.7606 11.2818 10.7292 11.172 10.7292H10.7859V11.404Z" fill="#1C291A"/>
</svg>
